<svg width="404" height="403" viewBox="0 0 404 403" fill="none" xmlns="http://www.w3.org/2000/svg">
<path fill-rule="evenodd" clip-rule="evenodd" d="M201.539 17.4883L200.993 18.5731C183.382 53.5606 172.259 75.6593 150.524 107.731C158.026 107.731 162.528 107.731 170.03 104.619C187.608 135.712 193.311 152.464 201.539 185.526C209.768 152.464 215.471 135.712 233.049 104.619C240.551 107.731 245.053 107.731 252.555 107.731C230.82 75.6593 219.696 53.5606 202.085 18.5731L201.539 17.4883ZM201.54 76.6129L187.626 95.2838C195.018 110.742 197.608 121.608 201.54 141.961C205.471 121.608 208.061 110.742 215.453 95.2838L201.54 76.6129ZM360.818 110.183L359.612 110.25C320.701 112.393 296.124 113.747 257.66 110.838C261.411 117.378 263.662 121.301 270.09 126.284C252.125 157.153 240.562 170.499 216.227 194.202C248.791 184.843 266.056 181.438 301.6 181.213C302.673 189.308 304.924 193.231 308.675 199.771C325.404 164.79 338.858 144.045 360.158 111.202L360.818 110.183ZM309.944 139.746L286.922 136.954C277.316 151.126 269.262 158.816 253.714 172.42C273.193 165.67 283.838 162.495 300.835 161.208L309.944 139.746ZM43.7415 111.21L43.0811 110.191L44.2875 110.258C83.1986 112.402 107.775 113.756 146.24 110.847C142.488 117.386 140.238 121.309 133.809 126.292C151.775 157.161 163.337 170.507 187.672 194.21C155.109 184.851 137.844 181.446 102.3 181.221C101.226 189.316 98.9753 193.24 95.2242 199.779C78.4952 164.798 65.0416 144.054 43.7415 111.21L43.7415 111.21ZM103.065 161.216L93.956 139.753L116.978 136.962C126.584 151.134 134.638 158.824 150.186 172.427C130.707 165.677 120.062 162.502 103.065 161.216ZM211.317 159.933L228.984 154.03L232.738 172.381L203.824 200.536L242.499 189.415L256.412 201.862L242.499 214.31L203.807 203.183L232.727 231.345L228.973 249.696L211.306 243.792L201.531 204.495L191.756 243.793L174.089 249.697L170.335 231.346L199.249 203.19L160.574 214.312L146.661 201.864L160.574 189.417L199.266 200.543L170.346 172.382L174.1 154.031L191.767 159.934L201.542 199.232L211.317 159.933ZM360.158 292.765L360.818 293.783L359.612 293.717H359.612C320.701 291.573 296.124 290.219 257.66 293.128C261.411 286.589 263.662 282.665 270.09 277.682C252.125 246.814 240.562 233.467 216.227 209.764C248.791 219.123 266.056 222.528 301.6 222.753C302.673 214.658 304.924 210.735 308.675 204.196C325.404 239.176 338.858 259.921 360.158 292.765ZM300.834 242.759L309.943 264.221L286.921 267.013C277.316 252.841 269.261 245.15 253.714 231.547C273.193 238.297 283.837 241.472 300.834 242.759ZM43.0811 293.783L44.2875 293.717H44.2876H44.2878H44.288H44.2881C83.1988 291.573 107.776 290.219 146.24 293.128C142.488 286.589 140.238 282.665 133.809 277.682C151.775 246.814 163.337 233.467 187.672 209.764C155.109 219.123 137.844 222.528 102.299 222.753C101.226 214.658 98.9753 210.735 95.2242 204.196C78.4952 239.176 65.0416 259.921 43.7415 292.765L43.7415 292.765L43.0811 293.783ZM93.9558 264.221L116.978 267.012C126.584 252.84 134.638 245.15 150.186 231.547C130.707 238.297 120.062 241.472 103.065 242.758L93.9558 264.221ZM203.231 385.578L202.685 386.663L202.139 385.578C184.528 350.59 173.405 328.492 151.67 296.42C159.172 296.42 163.673 296.42 171.176 299.532C188.754 268.438 194.457 251.687 202.685 218.625C210.914 251.687 216.616 268.438 234.195 299.532C241.697 296.42 246.198 296.42 253.701 296.42C231.966 328.492 220.842 350.59 203.231 385.578ZM215.457 308.443L201.544 327.114L187.631 308.443C195.022 292.984 197.613 282.119 201.544 261.766C205.475 282.119 208.065 292.984 215.457 308.443Z" fill="#5BD6DF"/>
</svg>
